<?xml version="1.0" encoding="UTF-8" standalone="no"?>
<!-- Created with Inkscape (http://www.inkscape.org/) -->

<svg
   xmlns:dc="http://purl.org/dc/elements/1.1/"
   xmlns:cc="http://creativecommons.org/ns#"
   xmlns:rdf="http://www.w3.org/1999/02/22-rdf-syntax-ns#"
   xmlns:svg="http://www.w3.org/2000/svg"
   xmlns="http://www.w3.org/2000/svg"
   xmlns:sodipodi="http://sodipodi.sourceforge.net/DTD/sodipodi-0.dtd"
   xmlns:inkscape="http://www.inkscape.org/namespaces/inkscape"
   width="75.164093mm"
   height="75.204552mm"
   viewBox="0 0 75.164093 75.204552"
   version="1.1"
   id="svg8"
   inkscape:version="0.92.4 (5da689c313, 2019-01-14)"
   sodipodi:docname="logo.svg">
  <defs
     id="defs2">
    <inkscape:path-effect
       effect="simplify"
       id="path-effect832"
       is_visible="true"
       steps="0"
       threshold="0.0044"
       smooth_angles="80"
       helper_size="5"
       simplify_individual_paths="true"
       simplify_just_coalesce="false" />
    <inkscape:path-effect
       effect="vonkoch"
       id="path-effect830"
       is_visible="true"
       ref_path="m 76.56676,177.04322 h 75.16409"
       generator="m 76.56676,220.91254 h 25.0547 m 25.0547,0 h 25.05469"
       similar_only="false"
       nbgenerations="6"
       drawall="true"
       maxComplexity="1000" />
    <inkscape:path-effect
       effect="vonkoch"
       id="path-effect828"
       is_visible="true"
       ref_path="m 76.56676,170.77617 h 75.16409"
       generator="m 76.56676,208.37845 h 25.0547 m 25.0547,0 h 25.05469"
       similar_only="false"
       nbgenerations="1"
       drawall="true"
       maxComplexity="1000" />
  </defs>
  <sodipodi:namedview
     id="base"
     pagecolor="#ffffff"
     bordercolor="#666666"
     borderopacity="1.0"
     inkscape:pageopacity="0.0"
     inkscape:pageshadow="2"
     inkscape:zoom="1.4"
     inkscape:cx="-3.6803473"
     inkscape:cy="132.87284"
     inkscape:document-units="mm"
     inkscape:current-layer="layer1"
     showgrid="false"
     fit-margin-top="0"
     fit-margin-left="0"
     fit-margin-right="0"
     fit-margin-bottom="0"
     inkscape:window-width="2556"
     inkscape:window-height="1415"
     inkscape:window-x="1440"
     inkscape:window-y="0"
     inkscape:window-maximized="0" />
  <metadata
     id="metadata5">
    <rdf:RDF>
      <cc:Work
         rdf:about="">
        <dc:format>image/svg+xml</dc:format>
        <dc:type
           rdf:resource="http://purl.org/dc/dcmitype/StillImage" />
        <dc:title></dc:title>
      </cc:Work>
    </rdf:RDF>
  </metadata>
  <g
     inkscape:label="Capa 1"
     inkscape:groupmode="layer"
     id="layer1"
     transform="translate(-59.368843,-133.92985)">
    <path
       style="fill:#000000;stroke-width:0.26458332"
       d="m 106.47589,207.68716 c -4.54432,-1.0151 -4.58413,-1.02846 -5.01235,-1.682 -0.26185,-0.39964 -0.4843,-1.97513 -0.68119,-4.82445 -0.1772,-2.56429 -0.4162,-4.34637 -0.60671,-4.52384 -0.17288,-0.16105 -1.445427,-1.06808 -2.827877,-2.01561 l -2.51354,-1.72278 -4.14866,1.32778 c -3.63104,1.16211 -4.24193,1.28914 -4.89624,1.01812 -0.52047,-0.21559 -1.44947,-1.37308 -3.05798,-3.81009 -3.13494,-4.74967 -3.14661,-4.54158 0.48625,-8.66365 l 2.80315,-3.18063 -0.59317,-3.23641 c -0.32624,-1.78002 -0.71852,-3.39637 -0.87172,-3.59189 -0.1532,-0.19552 -1.90379,-1.16965 -3.8902,-2.16475 -4.70248,-2.35573 -4.57827,-2.08584 -3.43777,-7.46983 0.91775,-4.33247 1.08522,-4.80688 1.83932,-5.21046 0.27099,-0.14504 2.38163,-0.38915 4.69029,-0.54248 4.77856,-0.31738 4.03078,0.0976 6.67418,-3.70387 l 1.56385,-2.24896 -1.33385,-4.14516 c -1.17538,-3.65271 -1.29639,-4.23422 -1.01853,-4.89479 0.21865,-0.51984 1.39006,-1.45932 3.8213,-3.06474 4.74165,-3.13103 4.52434,-3.14323 8.659777,0.48607 l 3.19181,2.80117 3.22577,-0.59118 c 1.77416,-0.32516 3.38572,-0.71654 3.58124,-0.86974 0.19552,-0.1532 1.16965,-1.90379 2.16475,-3.8902 2.35573,-4.70248 2.08584,-4.57827 7.46983,-3.43777 4.32754,0.91671 4.80712,1.08566 5.20804,1.8348 0.14371,0.26851 0.3913,2.37914 0.55021,4.69029 0.32896,4.78438 -0.0766,4.05358 3.7116,6.68778 l 2.262,1.57291 4.12543,-1.34569 c 3.64098,-1.18767 4.21442,-1.30884 4.8832,-1.03182 0.53305,0.2208 1.44291,1.35193 3.06817,3.81431 3.13494,4.74967 3.14661,4.54159 -0.48624,8.66365 l -2.80316,3.18063 0.59317,3.23641 c 0.32624,1.78002 0.71852,3.39637 0.87172,3.59189 0.15321,0.19552 1.90379,1.16965 3.8902,2.16475 4.70248,2.35573 4.57827,2.08584 3.43777,7.46983 -0.91601,4.32428 -1.08595,4.80727 -1.83183,5.20645 -0.26687,0.14283 -2.3775,0.39366 -4.69029,0.55741 -4.78698,0.33891 -4.07882,-0.0526 -6.67913,3.69295 l -1.5613,2.24896 1.2908,4.05213 c 0.79038,2.48122 1.23093,4.29064 1.13639,4.66736 -0.21607,0.86088 -1.12581,1.6308 -4.49931,3.80785 -4.09029,2.63963 -4.01325,2.64834 -8.05156,-0.9107 l -3.18062,-2.80316 -3.23641,0.59317 c -1.78003,0.32624 -3.39638,0.71852 -3.5919,0.87172 -0.19551,0.1532 -1.16641,1.89731 -2.15753,3.87579 -2.38066,4.75224 -2.17989,4.66006 -7.54115,3.46247 z m 2.34729,-18.75999 c 2.74044,-1.35794 4.59472,-3.26491 5.95426,-6.12346 0.81926,-1.72257 0.95312,-2.28923 1.04681,-4.43126 0.13579,-3.10475 -0.15367,-4.27472 -1.94988,-7.88109 -2.3786,-4.77571 -2.54274,-8.20183 -0.58939,-12.30312 0.99217,-2.0832 3.46796,-4.66185 5.43089,-5.65655 4.63122,-2.34682 9.69277,-1.86465 13.98605,1.33234 1.21315,0.90337 1.17944,0.84695 -0.56145,-0.93958 -3.49643,-3.58811 -7.09481,-5.65922 -12.30312,-7.0813 -2.64997,-0.72354 -9.4545,-0.65247 -12.30313,0.1285 -8.893817,2.43829 -15.759047,9.28987 -18.205917,18.16971 -2.0518,7.4461 -0.0578,16.96061 4.59745,21.93709 2.93413,3.13659 5.46275,4.17589 9.831307,4.04081 2.71715,-0.084 2.93191,-0.13455 5.06612,-1.19209 z m -7.77125,-4.36645 c -0.50248,-0.26029 -0.64767,-0.52695 -0.60411,-1.10947 0.0758,-1.01348 -0.596487,-1.7151 -1.643387,-1.7151 -0.65449,0 -0.9138,-0.15635 -1.16172,-0.70048 -0.2834,-0.622 -0.24369,-0.77927 0.3544,-1.40354 0.85951,-0.89714 0.85323,-1.5693 -0.0212,-2.26654 -0.68655,-0.54744 -0.68945,-0.56425 -0.24544,-1.42288 0.37432,-0.72386 0.55745,-0.84176 1.09707,-0.70632 1.0731,0.26933 1.695217,-0.25221 1.695217,-1.42116 0,-0.91575 0.09,-1.05451 0.85709,-1.32193 0.78239,-0.27274 0.89961,-0.24041 1.34498,0.371 0.61809,0.84849 1.49937,0.85612 2.28506,0.0198 0.5813,-0.61877 0.64834,-0.63048 1.39603,-0.24384 0.65473,0.33858 0.76651,0.53482 0.67188,1.17956 -0.14075,0.95903 0.39928,1.49413 1.62667,1.6118 0.73181,0.0702 0.95494,0.23564 1.16239,0.86203 0.22498,0.67934 0.17025,0.84415 -0.44265,1.33285 -0.89175,0.71107 -0.88827,1.42562 0.0104,2.14223 0.66972,0.53401 0.68993,0.61401 0.35778,1.41591 -0.30603,0.73881 -0.46412,0.84026 -1.20939,0.77605 -1.11788,-0.0963 -1.66171,0.38559 -1.76166,1.56109 -0.0667,0.78396 -0.21666,0.99657 -0.85144,1.20684 -0.67682,0.22421 -0.83233,0.17039 -1.27884,-0.44256 -0.63676,-0.87414 -1.25434,-0.88509 -2.05168,-0.0364 -0.71797,0.76424 -0.71405,0.76347 -1.5875,0.31102 z m 27.10724,-14.95311 c 0.37853,-1.13067 0.94262,-1.45117 1.90806,-1.08411 0.66156,0.25152 0.81629,0.20314 1.35566,-0.42391 0.56593,-0.65793 0.58004,-0.75183 0.2002,-1.33154 -0.67211,-1.02577 -0.52452,-1.85304 0.39881,-2.2355 0.71644,-0.29675 0.79846,-0.44206 0.7276,-1.28887 -0.0715,-0.85412 -0.16642,-0.96283 -0.9037,-1.03462 -0.98927,-0.0963 -1.47409,-0.91665 -1.11516,-1.88688 0.30957,-0.8368 0.12434,-1.27421 -0.69833,-1.64905 -0.54904,-0.25015 -0.75659,-0.22393 -1.16694,0.14743 -0.7154,0.64743 -1.77794,0.31796 -2.11769,-0.65664 -0.18227,-0.52287 -0.44778,-0.76943 -0.82855,-0.76943 -0.9187,0 -1.58387,0.50002 -1.58387,1.19062 0,0.86467 -0.85532,1.31316 -1.84583,0.96787 -0.64182,-0.22374 -0.83754,-0.16826 -1.35699,0.38467 -0.58675,0.62456 -0.592,0.67151 -0.1573,1.4074 0.65719,1.11253 0.55947,1.55877 -0.47501,2.16913 -0.79149,0.46699 -0.90058,0.64677 -0.75717,1.24785 0.23598,0.98905 0.32546,1.09912 0.89344,1.09912 0.27679,0 0.73262,0.24621 1.01296,0.54712 0.42751,0.45886 0.4633,0.67011 0.22189,1.30966 -0.23944,0.63434 -0.20529,0.85374 0.20306,1.30497 0.5789,0.63967 1.13066,0.68956 1.72071,0.15557 0.60507,-0.54758 1.54372,-0.22212 2.02094,0.70072 0.3327,0.64337 0.54164,0.76181 1.22425,0.69397 0.66708,-0.0663 0.87917,-0.2493 1.11896,-0.96555 z"
       id="path826"
       inkscape:connector-curvature="0"
       inkscape:path-effect="#path-effect832"
       inkscape:original-d="m 106.47589,207.68716 c -4.54432,-1.0151 -4.58413,-1.02846 -5.01235,-1.682 -0.26185,-0.39964 -0.4843,-1.97513 -0.68119,-4.82445 -0.1772,-2.56429 -0.4162,-4.34637 -0.60671,-4.52384 -0.17288,-0.16105 -1.445427,-1.06808 -2.827877,-2.01561 l -2.51354,-1.72278 -4.14866,1.32778 c -3.63104,1.16211 -4.24193,1.28914 -4.89624,1.01812 -0.52047,-0.21559 -1.44947,-1.37308 -3.05798,-3.81009 -3.13494,-4.74967 -3.14661,-4.54158 0.48625,-8.66365 l 2.80315,-3.18063 -0.59317,-3.23641 c -0.32624,-1.78002 -0.71852,-3.39637 -0.87172,-3.59189 -0.1532,-0.19552 -1.90379,-1.16965 -3.8902,-2.16475 -4.70248,-2.35573 -4.57827,-2.08584 -3.43777,-7.46983 0.91775,-4.33247 1.08522,-4.80688 1.83932,-5.21046 0.27099,-0.14504 2.38163,-0.38915 4.69029,-0.54248 4.77856,-0.31738 4.03078,0.0976 6.67418,-3.70387 l 1.56385,-2.24896 -1.33385,-4.14516 c -1.17538,-3.65271 -1.29639,-4.23422 -1.01853,-4.89479 0.21865,-0.51984 1.39006,-1.45932 3.8213,-3.06474 4.74165,-3.13103 4.52434,-3.14323 8.659777,0.48607 l 3.19181,2.80117 3.22577,-0.59118 c 1.77416,-0.32516 3.38572,-0.71654 3.58124,-0.86974 0.19552,-0.1532 1.16965,-1.90379 2.16475,-3.8902 2.35573,-4.70248 2.08584,-4.57827 7.46983,-3.43777 4.32754,0.91671 4.80712,1.08566 5.20804,1.8348 0.14371,0.26851 0.3913,2.37914 0.55021,4.69029 0.32896,4.78438 -0.0766,4.05358 3.7116,6.68778 l 2.262,1.57291 4.12543,-1.34569 c 3.64098,-1.18767 4.21442,-1.30884 4.8832,-1.03182 0.53305,0.2208 1.44291,1.35193 3.06817,3.81431 3.13494,4.74967 3.14661,4.54159 -0.48624,8.66365 l -2.80316,3.18063 0.59317,3.23641 c 0.32624,1.78002 0.71852,3.39637 0.87172,3.59189 0.15321,0.19552 1.90379,1.16965 3.8902,2.16475 4.70248,2.35573 4.57827,2.08584 3.43777,7.46983 -0.91601,4.32428 -1.08595,4.80727 -1.83183,5.20645 -0.26687,0.14283 -2.3775,0.39366 -4.69029,0.55741 -4.78698,0.33891 -4.07882,-0.0526 -6.67913,3.69295 l -1.5613,2.24896 1.2908,4.05213 c 0.79038,2.48122 1.23093,4.29064 1.13639,4.66736 -0.21607,0.86088 -1.12581,1.6308 -4.49931,3.80785 -4.09029,2.63963 -4.01325,2.64834 -8.05156,-0.9107 l -3.18062,-2.80316 -3.23641,0.59317 c -1.78003,0.32624 -3.39638,0.71852 -3.5919,0.87172 -0.19551,0.1532 -1.16641,1.89731 -2.15753,3.87579 -2.38066,4.75224 -2.17989,4.66006 -7.54115,3.46247 z m 2.34729,-18.75999 c 2.74044,-1.35794 4.59472,-3.26491 5.95426,-6.12346 0.81926,-1.72257 0.95312,-2.28923 1.04681,-4.43126 0.13579,-3.10475 -0.15367,-4.27472 -1.94988,-7.88109 -2.3786,-4.77571 -2.54274,-8.20183 -0.58939,-12.30312 0.99217,-2.0832 3.46796,-4.66185 5.43089,-5.65655 4.63122,-2.34682 9.69277,-1.86465 13.98605,1.33234 1.21315,0.90337 1.17944,0.84695 -0.56145,-0.93958 -3.49643,-3.58811 -7.09481,-5.65922 -12.30312,-7.0813 -2.64997,-0.72354 -9.4545,-0.65247 -12.30313,0.1285 -8.893817,2.43829 -15.759047,9.28987 -18.205917,18.16971 -2.0518,7.4461 -0.0578,16.96061 4.59745,21.93709 2.93413,3.13659 5.46275,4.17589 9.831307,4.04081 2.71715,-0.084 2.93191,-0.13455 5.06612,-1.19209 z m -7.77125,-4.36645 c -0.50248,-0.26029 -0.64767,-0.52695 -0.60411,-1.10947 0.0758,-1.01348 -0.596487,-1.7151 -1.643387,-1.7151 -0.65449,0 -0.9138,-0.15635 -1.16172,-0.70048 -0.2834,-0.622 -0.24369,-0.77927 0.3544,-1.40354 0.85951,-0.89714 0.85323,-1.5693 -0.0212,-2.26654 -0.68655,-0.54744 -0.68945,-0.56425 -0.24544,-1.42288 0.37432,-0.72386 0.55745,-0.84176 1.09707,-0.70632 1.0731,0.26933 1.695217,-0.25221 1.695217,-1.42116 0,-0.91575 0.09,-1.05451 0.85709,-1.32193 0.78239,-0.27274 0.89961,-0.24041 1.34498,0.371 0.61809,0.84849 1.49937,0.85612 2.28506,0.0198 0.5813,-0.61877 0.64834,-0.63048 1.39603,-0.24384 0.65473,0.33858 0.76651,0.53482 0.67188,1.17956 -0.14075,0.95903 0.39928,1.49413 1.62667,1.6118 0.73181,0.0702 0.95494,0.23564 1.16239,0.86203 0.22498,0.67934 0.17025,0.84415 -0.44265,1.33285 -0.89175,0.71107 -0.88827,1.42562 0.0104,2.14223 0.66972,0.53401 0.68993,0.61401 0.35778,1.41591 -0.30603,0.73881 -0.46412,0.84026 -1.20939,0.77605 -1.11788,-0.0963 -1.66171,0.38559 -1.76166,1.56109 -0.0667,0.78396 -0.21666,0.99657 -0.85144,1.20684 -0.67682,0.22421 -0.83233,0.17039 -1.27884,-0.44256 -0.63676,-0.87414 -1.25434,-0.88509 -2.05168,-0.0364 -0.71797,0.76424 -0.71405,0.76347 -1.5875,0.31102 z m 27.10724,-14.95311 c 0.37853,-1.13067 0.94262,-1.45117 1.90806,-1.08411 0.66156,0.25152 0.81629,0.20314 1.35566,-0.42391 0.56593,-0.65793 0.58004,-0.75183 0.2002,-1.33154 -0.67211,-1.02577 -0.52452,-1.85304 0.39881,-2.2355 0.71644,-0.29675 0.79846,-0.44206 0.7276,-1.28887 -0.0715,-0.85412 -0.16642,-0.96283 -0.9037,-1.03462 -0.98927,-0.0963 -1.47409,-0.91665 -1.11516,-1.88688 0.30957,-0.8368 0.12434,-1.27421 -0.69833,-1.64905 -0.54904,-0.25015 -0.75659,-0.22393 -1.16694,0.14743 -0.7154,0.64743 -1.77794,0.31796 -2.11769,-0.65664 -0.18227,-0.52287 -0.44778,-0.76943 -0.82855,-0.76943 -0.9187,0 -1.58387,0.50002 -1.58387,1.19062 0,0.86467 -0.85532,1.31316 -1.84583,0.96787 -0.64182,-0.22374 -0.83754,-0.16826 -1.35699,0.38467 -0.58675,0.62456 -0.592,0.67151 -0.1573,1.4074 0.65719,1.11253 0.55947,1.55877 -0.47501,2.16913 -0.79149,0.46699 -0.90058,0.64677 -0.75717,1.24785 0.23598,0.98905 0.32546,1.09912 0.89344,1.09912 0.27679,0 0.73262,0.24621 1.01296,0.54712 0.42751,0.45886 0.4633,0.67011 0.22189,1.30966 -0.23944,0.63434 -0.20529,0.85374 0.20306,1.30497 0.5789,0.63967 1.13066,0.68956 1.72071,0.15557 0.60507,-0.54758 1.54372,-0.22212 2.02094,0.70072 0.3327,0.64337 0.54164,0.76181 1.22425,0.69397 0.66708,-0.0663 0.87917,-0.2493 1.11896,-0.96555 z"
       transform="translate(-17.197917,0.75595235)" />
  </g>
</svg>
